<?xml version="1.0" standalone="no"?><svg xmlns="http://www.w3.org/2000/svg" viewBox="0 0 1440 320"><path fill="#0099ff" fill-opacity="1" d="M0,64L26.7,90.7C53.3,117,107,171,160,181.3C213.3,192,267,160,320,160C373.3,160,427,192,480,186.7C533.3,181,587,139,640,117.3C693.3,96,747,96,800,80C853.3,64,907,32,960,58.7C1013.3,85,1067,171,1120,192C1173.3,213,1227,171,1280,160C1333.3,149,1387,171,1413,181.3L1440,192L1440,0L1413.3,0C1386.7,0,1333,0,1280,0C1226.7,0,1173,0,1120,0C1066.7,0,1013,0,960,0C906.7,0,853,0,800,0C746.7,0,693,0,640,0C586.7,0,533,0,480,0C426.7,0,373,0,320,0C266.7,0,213,0,160,0C106.7,0,53,0,27,0L0,0Z"></path></svg>